<?xml version="1.0" encoding="utf-8"?>
<!-- Generator: Adobe Illustrator 24.1.1, SVG Export Plug-In . SVG Version: 6.00 Build 0)  -->
<svg version="1.1" id="Layer_1" xmlns="http://www.w3.org/2000/svg" xmlns:xlink="http://www.w3.org/1999/xlink" x="0px" y="0px"
	 viewBox="0 0 24 24" style="enable-background:new 0 0 24 24;" xml:space="preserve">
<style type="text/css">
	.st0{fill:#FFFFFF;stroke:#FFFFFF;stroke-width:2;stroke-miterlimit:10;}
</style>
<g>
	<path class="st0" d="M22.2,22.2c-0.1,0-0.3-0.1-0.4-0.1l-5-4.6c-1.7,1.4-3.9,2.2-6.2,2.2c-5.1,0-9.3-3.9-9.3-8.7s4.2-8.7,9.3-8.7
		S20,6.3,20,11.1c0,2.1-0.9,4.2-2.4,5.9l5,4.6c0.1,0.1,0.1,0.2,0.1,0.3s-0.1,0.2-0.1,0.3S22.3,22.2,22.2,22.2z M10.7,3.3
		c-4.6,0-8.4,3.5-8.4,7.8s3.8,7.8,8.4,7.8s8.4-3.5,8.4-7.8S15.3,3.3,10.7,3.3z"/>
</g>
</svg>
