<svg id="Layer_1" data-name="Layer 1" xmlns="http://www.w3.org/2000/svg" xmlns:xlink="http://www.w3.org/1999/xlink" viewBox="0 0 1659.82 4009.18"><defs><style>.cls-1,.cls-12,.cls-18,.cls-28,.cls-33,.cls-36,.cls-41,.cls-48,.cls-53,.cls-57{fill:#c5e9da;}.cls-13,.cls-19,.cls-2,.cls-23,.cls-3,.cls-30,.cls-34,.cls-37,.cls-45,.cls-47,.cls-6,.cls-7{fill:#fff;}.cls-12,.cls-13,.cls-18,.cls-19,.cls-2,.cls-23,.cls-25,.cls-28,.cls-29,.cls-30,.cls-33,.cls-34,.cls-36,.cls-37,.cls-41,.cls-44,.cls-45,.cls-47,.cls-48,.cls-49,.cls-51,.cls-53,.cls-54,.cls-55,.cls-57,.cls-6,.cls-7{stroke:#36b37e;}.cls-10,.cls-2,.cls-29,.cls-33,.cls-34,.cls-36,.cls-37,.cls-41,.cls-57{stroke-miterlimit:10;}.cls-2,.cls-41{stroke-width:1.36px;}.cls-4,.cls-51{fill:#36b37e;}.cls-5{fill:#5e78a5;}.cls-12,.cls-13,.cls-18,.cls-19,.cls-23,.cls-25,.cls-26,.cls-28,.cls-44,.cls-45,.cls-47,.cls-48,.cls-49,.cls-51,.cls-53,.cls-54,.cls-55,.cls-6,.cls-7{stroke-linejoin:round;}.cls-53,.cls-54,.cls-55,.cls-6{stroke-width:1.63px;}.cls-57,.cls-7{stroke-width:1.44px;}.cls-10,.cls-25,.cls-26,.cls-29,.cls-44,.cls-49,.cls-54,.cls-8{fill:none;}.cls-9{clip-path:url(#clip-path);}.cls-10{stroke:#a5adba;stroke-linecap:round;stroke-dasharray:1 1;}.cls-11{clip-path:url(#clip-path-2);}.cls-12,.cls-13{stroke-width:2.29px;}.cls-14{fill:#644df2;}.cls-15,.cls-55{fill:#172b4d;}.cls-16{opacity:0.88;}.cls-17{clip-path:url(#clip-path-3);}.cls-18,.cls-19{stroke-width:1.11px;}.cls-20{opacity:0.32;}.cls-21{clip-path:url(#clip-path-4);}.cls-22{clip-path:url(#clip-path-5);}.cls-23,.cls-25,.cls-26{stroke-width:1.44px;}.cls-24{mask:url(#mask);}.cls-26{stroke:#fff;}.cls-27{clip-path:url(#clip-path-6);}.cls-28,.cls-29,.cls-30{stroke-width:1.52px;}.cls-31{clip-path:url(#clip-path-7);}.cls-32{opacity:0.48;}.cls-33,.cls-34{stroke-width:0.74px;}.cls-35{clip-path:url(#clip-path-8);}.cls-36,.cls-37{stroke-width:1.39px;}.cls-38{fill:#dfe1e6;}.cls-39{clip-path:url(#clip-path-9);}.cls-40{mask:url(#mask-2);}.cls-42{clip-path:url(#clip-path-10);}.cls-43{mask:url(#mask-3);}.cls-44,.cls-45{stroke-width:1.57px;}.cls-46{clip-path:url(#clip-path-11);}.cls-47,.cls-48,.cls-49,.cls-51{stroke-width:1.56px;}.cls-50{mask:url(#mask-4);}.cls-52{clip-path:url(#clip-path-12);}.cls-56{mask:url(#mask-5);}.cls-58{mask:url(#mask-6);}</style><clipPath id="clip-path" transform="translate(60.33 234.18)"><rect class="cls-8" width="1440" height="3846"/></clipPath><clipPath id="clip-path-2" transform="translate(60.33 234.18)"><rect class="cls-8" x="1157.31" y="170.45" width="302.38" height="345.23" transform="translate(-44.16 356.59) rotate(-15.26)"/></clipPath><clipPath id="clip-path-3" transform="translate(60.33 234.18)"><rect class="cls-8" x="276.44" y="698.75" width="136.67" height="156.04" transform="translate(-316.19 242.57) rotate(-27.12)"/></clipPath><clipPath id="clip-path-4" transform="translate(60.33 234.18)"><rect class="cls-8" x="500.94" y="95.71" width="60.24" height="52.76" transform="translate(-11.38 70.21) rotate(-7.48)"/></clipPath><clipPath id="clip-path-5" transform="translate(60.33 234.18)"><rect class="cls-8" x="58.65" y="252.39" width="220.88" height="217" transform="translate(-228.91 381.72) rotate(-67.89)"/></clipPath><mask id="mask" x="150.7" y="534.95" width="158.64" height="143.65" maskUnits="userSpaceOnUse"><g transform="translate(60.33 234.18)"><g id="mask0_34_2068" data-name="mask0 34 2068"><path class="cls-1" d="M114.22,339.19l36.4,97.73,62.31-33.71-2.5-102.44Z"/></g></g></mask><clipPath id="clip-path-6" transform="translate(60.33 234.18)"><rect class="cls-8" x="934.71" y="-84.92" width="147.72" height="220.22" transform="translate(412.86 839.43) rotate(-55.24)"/></clipPath><clipPath id="clip-path-7" transform="translate(60.33 234.18)"><rect class="cls-8" x="550.71" y="613.82" width="98.36" height="123.41" transform="translate(-251.9 374.43) rotate(-28.93)"/></clipPath><clipPath id="clip-path-8" transform="translate(60.33 234.18)"><rect class="cls-8" x="922.71" y="668.39" width="232.21" height="185.08" transform="translate(-241.29 621.36) rotate(-30)"/></clipPath><clipPath id="clip-path-9" transform="translate(60.33 234.18)"><rect class="cls-8" x="1216" y="2307" width="273" height="245"/></clipPath><mask id="mask-2" x="1276.51" y="2603.75" width="158.34" height="124.66" maskUnits="userSpaceOnUse"><g transform="translate(60.33 234.18)"><g id="mask1_34_2068" data-name="mask1 34 2068"><path class="cls-2" d="M1368.38,2456.36V2451s-11.68-23.14-13.35-23.36-137.39-56.75-137.39-56.75l51.73,100.7,20.47,21.8Z"/></g></g></mask><clipPath id="clip-path-10" transform="translate(60.33 234.18)"><rect class="cls-8" x="1250.81" y="3299.25" width="316.16" height="450.96" transform="translate(-542.05 268.58) rotate(-9.14)"/></clipPath><mask id="mask-3" x="1339.27" y="3520.13" width="255.74" height="480.76" maskUnits="userSpaceOnUse"><g transform="translate(60.33 234.18)"><g id="mask2_34_2068" data-name="mask2 34 2068"><path class="cls-3" d="M1480.62,3286l54.06,32.56-150.21,424.1-67.19,24.1-30-34.13-8.33-27.54L1377.52,3463l23.94-22.18-9.65-23,44.35-113.25Z"/></g></g></mask><clipPath id="clip-path-11" transform="translate(60.33 234.18)"><rect class="cls-8" x="-100.26" y="3467.21" width="236" height="261.09" transform="translate(-2537.52 1065.02) rotate(-44.97)"/></clipPath><mask id="mask-4" x="0" y="3712.84" width="139.37" height="79.02" maskUnits="userSpaceOnUse"><g transform="translate(60.33 234.18)"><g id="mask3_34_2068" data-name="mask3 34 2068"><path class="cls-1" d="M-13.29,3521.64,1.13,3526l9.59-9.93,13.71,4.31-9.59,9.58L28.36,3534l-9.4,9.75-13.71-3.95-14.07-4L-18.95,3546l-14.78-4-10.5,10.48-15.51-3.94,11-10.67,10.49-10.48,14.79,4.31Z"/><path class="cls-4" d="M-3.16,3511.88l9.76-9.75,13.71,4.31L10.72,3516Z"/><path class="cls-5" d="M37.59,3524.46l-13.16-4.13,9.22-9.58-13.34-4.31,9.4-9.4,13,4.31,12.62,4.32-8.69,9.39,12.63,4,12.44,4.13-8.5,9.21-12.63-4L41.35,3538l-13-3.95Z"/><path class="cls-4" d="M54.33,3541.94l-8.87,9.58-13.16-3.77,9.05-9.76Z"/><path class="cls-4" d="M76.44,3500.77l-8.5,9.21-12.62-4.31,8.86-9.22Z"/><path class="cls-4" d="M6.6,3502.13l-13.88-4.5,9.59-9.57,9.76-9.4,13.53,4.49L38.76,3488l-9,9-13.52-4.49Z"/><path class="cls-4" d="M32.3,3547.75l-9.23,9.93-13.88-3.77L19,3543.79Z"/></g></g></mask><clipPath id="clip-path-12" transform="translate(60.33 234.18)"><rect class="cls-8" x="283.32" y="3603.34" width="105.27" height="67.18" transform="translate(-1527.84 495.85) rotate(-25.41)"/></clipPath><mask id="mask-5" x="348.68" y="3837.26" width="81.04" height="83.4" maskUnits="userSpaceOnUse"><g transform="translate(60.33 234.18)"><g id="mask4_34_2068" data-name="mask4 34 2068"><path class="cls-6" d="M291.15,3659.93,323.22,3636l11.3,1.33,34.05,8.44-4.13,2L311,3673.13Z"/></g></g></mask><mask id="mask-6" x="6.98" y="2763.46" width="164.97" height="108.72" maskUnits="userSpaceOnUse"><g transform="translate(60.33 234.18)"><g id="mask5_34_2068" data-name="mask5 34 2068"><path class="cls-7" d="M-52.62,2530l163.36,60.21-32.35,11.14-81.68,18.91Z"/></g></g></mask></defs><g class="cls-9"><path class="cls-10" d="M155.81,718.73,427.47,541" transform="translate(60.33 234.18)"/><path class="cls-10" d="M74.86,479.83l308.92-61.77" transform="translate(60.33 234.18)"/><path class="cls-10" d="M71,223.73,379.92,285.5" transform="translate(60.33 234.18)"/><path class="cls-10" d="M144.5-18.38,416.16,159.35" transform="translate(60.33 234.18)"/><path class="cls-10" d="M286.63-217.37,488.38,55" transform="translate(60.33 234.18)"/><path class="cls-10" d="M1122.68-233.68,921.19,38.44" transform="translate(60.33 234.18)"/><path class="cls-10" d="M1270.72-40.52,999.32,137.2" transform="translate(60.33 234.18)"/><path class="cls-10" d="M1351.68,198.68,1043,260.15" transform="translate(60.33 234.18)"/><path class="cls-10" d="M1355.79,454.48l-308.92-61.77" transform="translate(60.33 234.18)"/><path class="cls-10" d="M1282,696.59l-271.4-177.72" transform="translate(60.33 234.18)"/><path class="cls-10" d="M1139.9,895.58,938.41,623.17" transform="translate(60.33 234.18)"/><path class="cls-10" d="M946.37,1027.56,839.2,693.39" transform="translate(60.33 234.18)"/><path class="cls-10" d="M713.52,949.77v-229" transform="translate(60.33 234.18)"/><path class="cls-10" d="M501.49,1036.3,608.92,702.13" transform="translate(60.33 234.18)"/><path class="cls-10" d="M304.11,911.9,505.6,639.78" transform="translate(60.33 234.18)"/><path class="cls-10" d="M155.81,718.73,427.47,541" transform="translate(60.33 234.18)"/><path class="cls-10" d="M74.86,479.83l308.92-61.77" transform="translate(60.33 234.18)"/><path class="cls-10" d="M71,223.73,379.92,285.5" transform="translate(60.33 234.18)"/><path class="cls-10" d="M144.5-18.38,416.16,159.35" transform="translate(60.33 234.18)"/><path class="cls-10" d="M286.63-217.37,488.38,55" transform="translate(60.33 234.18)"/><g class="cls-11"><path class="cls-12" d="M1141.27,300.42l117.87-121.69,171.74,42.66L1312.33,343Z" transform="translate(60.33 234.18)"/><path class="cls-13" d="M1312.33,343l118.55-121.65,36.63,167.24L1357.23,507.57Z" transform="translate(60.33 234.18)"/><path class="cls-13" d="M1312.33,343l-72.21,63.45,117.11,101.08Z" transform="translate(60.33 234.18)"/><path class="cls-13" d="M1240.12,406.49l-98.85-106.07L1312.33,343Z" transform="translate(60.33 234.18)"/><path class="cls-12" d="M1357.23,507.57l-172.09-46.39,55-54.69Z" transform="translate(60.33 234.18)"/><path class="cls-13" d="M1141.27,300.42l43.87,160.76,55-54.69Z" transform="translate(60.33 234.18)"/><path class="cls-14" d="M1276.12,374.79l21.86-19Z" transform="translate(60.33 234.18)"/><path class="cls-4" d="M1293.23,338.33l4.75,17.42L1312.33,343Z" transform="translate(60.33 234.18)"/><path class="cls-4" d="M1293.23,338.33l116.38-122.18-29.5-7.29-115.9,122.28Z" transform="translate(60.33 234.18)"/><path class="cls-4" d="M1242.4,325.59l116.38-122.18-29.5-7.29L1213.38,318.4Z" transform="translate(60.33 234.18)"/><path class="cls-4" d="M1242.4,325.59,1260,390.23l16.08-15.44-11.91-43.65Z" transform="translate(60.33 234.18)"/><path class="cls-4" d="M1213.38,318.4l22.9,84-50.39-54.12-10.77-39.46Z" transform="translate(60.33 234.18)"/><path class="cls-15" d="M1175.12,308.77,1193,291.51l-34.65-8.81-17,17.72Z" transform="translate(60.33 234.18)"/><path class="cls-15" d="M1229.69,301.33l16.61-17.62-37.78-9.53-17.09,17.52Z" transform="translate(60.33 234.18)"/><path class="cls-15" d="M1208.52,274.18l17.84-17.27-34.65-8.81-17.09,17.52Z" transform="translate(60.33 234.18)"/><path class="cls-15" d="M1235.52,411.13l4.6-4.64-37.41,59.59-17.57-4.9Z" transform="translate(60.33 234.18)"/><path class="cls-4" d="M1442.4,273.49,1420.63,297l8.82,37.28,21.2-23.15Z" transform="translate(60.33 234.18)"/><path class="cls-15" d="M1427.6,326.69l6.09,28.1-21.19,23.15-6.57-28.2-71.15,75.56s19.47,71.36,22.45,82.27,110.33-118.73,110.33-118.73L1449,304.17Z" transform="translate(60.33 234.18)"/></g><g class="cls-16"><g class="cls-17"><path class="cls-18" d="M422.71,780.1l-40.84,64.77L301.94,842l41.15-64.82Z" transform="translate(60.33 234.18)"/><path class="cls-19" d="M343.09,777.13,301.94,842l-31.73-70.57L308,708.52Z" transform="translate(60.33 234.18)"/><path class="cls-19" d="M343.09,777.13l26-34.77L308,708.52Z" transform="translate(60.33 234.18)"/><path class="cls-19" d="M369.13,742.36l53.58,37.74-79.62-3Z" transform="translate(60.33 234.18)"/><path class="cls-18" d="M308,708.52l80.42,4.55-19.24,29.29Z" transform="translate(60.33 234.18)"/><path class="cls-19" d="M422.71,780.1l-34.34-67-19.24,29.29Z" transform="translate(60.33 234.18)"/><path class="cls-14" d="M356.15,759.73l-7.9,10.45Z" transform="translate(60.33 234.18)"/><path class="cls-4" d="M352,777.44l-3.72-7.26-5.16,7Z" transform="translate(60.33 234.18)"/><path class="cls-4" d="M352,777.44,311.84,842.3l13.72.48,39.92-64.85Z" transform="translate(60.33 234.18)"/><path class="cls-4" d="M375.64,778.36,335.5,843.21l13.73.48,39.91-64.85Z" transform="translate(60.33 234.18)"/><path class="cls-4" d="M375.64,778.36l-13.81-27-5.68,8.33,9.33,18.2Z" transform="translate(60.33 234.18)"/><path class="cls-4" d="M389.14,778.84l-17.92-35,27.31,19.26L407,779.55Z" transform="translate(60.33 234.18)"/><path class="cls-15" d="M407,779.55l-6.29,9.3,16.15.67,5.89-9.42Z" transform="translate(60.33 234.18)"/><path class="cls-15" d="M383.51,787.91l-5.71,9.34,17.6.7,5.93-9.33Z" transform="translate(60.33 234.18)"/><path class="cls-15" d="M395.4,798l-6.29,9.3,16.15.68,5.93-9.34Z" transform="translate(60.33 234.18)"/><path class="cls-15" d="M370.74,739.89l-1.61,2.47,11-29.83,8.22.54Z" transform="translate(60.33 234.18)"/><path class="cls-4" d="M292,820l7.44-12.42-7.36-15.67-7.23,12.2Z" transform="translate(60.33 234.18)"/><path class="cls-15" d="M293.62,795.07l-5.31-11.87,7.23-12.2,5.52,11.86,24.46-40S310.28,713.08,308,708.52s-37.78,62.77-37.78,62.77L286.26,807Z" transform="translate(60.33 234.18)"/></g></g><g class="cls-20"><g class="cls-21"><path class="cls-18" d="M542.39,94.19l18.25,23.25-11.43,28.69L531,122.76Z" transform="translate(60.33 234.18)"/><path class="cls-19" d="M531,122.76l18.23,23.37-29.78,2.38-18-21.88Z" transform="translate(60.33 234.18)"/><path class="cls-19" d="M531,122.76l-9.26-14-20.25,17.86Z" transform="translate(60.33 234.18)"/><path class="cls-19" d="M521.72,108.77l20.67-14.58L531,122.76Z" transform="translate(60.33 234.18)"/><path class="cls-18" d="M501.47,126.63,513.56,98l8.16,10.79Z" transform="translate(60.33 234.18)"/><path class="cls-19" d="M542.39,94.19,513.56,98l8.16,10.79Z" transform="translate(60.33 234.18)"/><path class="cls-14" d="M526.35,115.75l2.77,4.23Z" transform="translate(60.33 234.18)"/><path class="cls-4" d="M532.25,119.56l-3.13.42,1.86,2.78Z" transform="translate(60.33 234.18)"/><path class="cls-4" d="M532.25,119.57l18.37,23,2-4.92-18.41-22.93Z" transform="translate(60.33 234.18)"/><path class="cls-4" d="M535.65,111.08l18.37,23,2-4.93-18.4-22.93Z" transform="translate(60.33 234.18)"/><path class="cls-4" d="M535.65,111.08l-11.59,1.52,2.29,3.15,7.82-1Z" transform="translate(60.33 234.18)"/><path class="cls-4" d="M537.58,106.23l-15.06,2,10.55-7.44,7.08-.93Z" transform="translate(60.33 234.18)"/><path class="cls-15" d="M540.15,99.84l2.56,3.5,2.34-5.79-2.66-3.36Z" transform="translate(60.33 234.18)"/><path class="cls-15" d="M540.15,109.45l2.65,3.29,2.54-6.3-2.63-3.37Z" transform="translate(60.33 234.18)"/><path class="cls-15" d="M545.34,106.44l2.56,3.49,2.34-5.78-2.62-3.37Z" transform="translate(60.33 234.18)"/><path class="cls-15" d="M521,107.87l.7.9-9.42-7.87L513.56,98Z" transform="translate(60.33 234.18)"/><path class="cls-4" d="M539.93,146.89l-3.55-4.32-6.66.64,3.51,4.21Z" transform="translate(60.33 234.18)"/><path class="cls-15" d="M531.09,143.07l-5,.39-3.5-4.21,5-.47-11.38-14.09-14.76,1.94c-2,.26,17.93,21.88,17.93,21.88l15.07-1.21Z" transform="translate(60.33 234.18)"/></g></g><g class="cls-22"><path class="cls-23" d="M57.29,349.73,206,257.45S86.73,445.87,84.73,445.06C84.73,445.06,66.19,375.24,57.29,349.73Z" transform="translate(60.33 234.18)"/><path class="cls-4" d="M206,257.45l4.48,6.17S215.3,458.18,215,460.08s2.68,3.73-2,4.93-87.61-11.83-108-15.92l-20.26-4Z" transform="translate(60.33 234.18)"/><path class="cls-1" d="M113.74,338.48l36.4,97.73,62.31-33.7L210,300.07Z" transform="translate(60.33 234.18)"/><g class="cls-24"><path class="cls-4" d="M203.53,398.56l-16.66-3.35-.38,21.59-17.92-2.93-1.14,23.46L186,439.75l17.67,2.37,16.77,2.31-.68-22-16.29-2.73Z" transform="translate(60.33 234.18)"/><path class="cls-4" d="M169.44,391.86l17.43,3.35.35-20.36L170.46,371Z" transform="translate(60.33 234.18)"/><path class="cls-4" d="M151.21,388.18l-1.54,22.52,18.9,3.17.87-22Z" transform="translate(60.33 234.18)"/><path class="cls-4" d="M151.21,388.18,152.66,367,134,362.86l-2.07,21.53Z" transform="translate(60.33 234.18)"/><path class="cls-4" d="M131.93,384.39l-20.12-4-3,23.47L105.59,429l21.79,2.95L148,434.71l1.68-24-19.94-3.29Z" transform="translate(60.33 234.18)"/><path class="cls-4" d="M249,407.41l-1.34-18.87-14.06-3.23-14.79-3.37-.49-18.68-14.94-3.74-15.67-3.88-.5,19.21,16.23,3.64.08,20.07,15.85,3,.4,20.82L235.34,425l-.88-20.39Z" transform="translate(60.33 234.18)"/><path class="cls-4" d="M232,349.55l-14.11-3.87.46,17.58L232.82,367Z" transform="translate(60.33 234.18)"/><path class="cls-4" d="M171.26,351.44l16.46,4.2.32-18.35-15.91-4.45-16.75-4.63-1.31,18.89L152.66,367l17.8,4Z" transform="translate(60.33 234.18)"/><path class="cls-4" d="M136,342.56,117.2,337.7l-2.65,20.67L134,362.86Z" transform="translate(60.33 234.18)"/><path class="cls-4" d="M93.91,353.72,90.37,376.2l21.44,4.21,2.74-22Z" transform="translate(60.33 234.18)"/></g><path class="cls-15" d="M113.74,338.48,167.51,317l-38.76,61.76Z" transform="translate(60.33 234.18)"/><path class="cls-25" d="M84.37,332.77,72.73,401.19" transform="translate(60.33 234.18)"/><path class="cls-15" d="M81.94,347.16l-4.65-10,7.08-4.42Z" transform="translate(60.33 234.18)"/><path class="cls-25" d="M177.73,275l14.38,4" transform="translate(60.33 234.18)"/><path class="cls-26" d="M124,368.6l35.46,89.74" transform="translate(60.33 234.18)"/></g><g class="cls-27"><path class="cls-28" d="M1085.3,106.3,976.43,91.85,931,47.76l6-111.38,14.78-21.31,33,4.61L1091.14,34.29Z" transform="translate(60.33 234.18)"/><path class="cls-4" d="M1013.28,96.75l-2.52-32s-11,30.21-15.57,29.62S1013.28,96.75,1013.28,96.75Z" transform="translate(60.33 234.18)"/><path class="cls-29" d="M1039.3,100.22l25-94.74" transform="translate(60.33 234.18)"/><path class="cls-29" d="M1058,29.17l-1.87-32.68" transform="translate(60.33 234.18)"/><path class="cls-30" d="M936.5-40.2,981-11.3,992,1.6l-11.55,8.64L935.71-26.25Z" transform="translate(60.33 234.18)"/><path class="cls-29" d="M1010.32,80.13l.34-49.43" transform="translate(60.33 234.18)"/><path class="cls-15" d="M948.15-23.94l-12.88-6.72L931,47.81l45.46,44.1,3.94-80.71-5.71-9.32Z" transform="translate(60.33 234.18)"/></g><g class="cls-31"><g class="cls-32"><path class="cls-33" d="M571.8,625.85l83.56,51s12.37,9.75.74,30.74-25.73,15.9-25.73,15.9l-86.77-50s-10.29-9.47,0-28.89C555.55,622,571.8,625.85,571.8,625.85Z" transform="translate(60.33 234.18)"/><path class="cls-4" d="M571.8,625.85s11.85,7.26-.79,31.17c-11.87,22.38-27.41,16.49-27.41,16.49s-10-10.3,0-28.89S565.67,625.71,571.8,625.85Z" transform="translate(60.33 234.18)"/><path class="cls-15" d="M648.73,672.74S641,684.5,620.66,692.63c-21.57,8.64-33.86,5.75-33.86,5.75l17.43,10.06s9.15,1.93,31.7-8.59c18.41-8.58,23.67-17,23.67-17l-4.34-6Z" transform="translate(60.33 234.18)"/><path class="cls-4" d="M619.11,654.93s-7.48,10.54-29.61,17.71-37.32,5.89-37.32,5.89l17.43,10.07s14.12,1.79,34.06-6.45c18.48-7.69,29-18.91,29-18.91L622,656.69Z" transform="translate(60.33 234.18)"/><path class="cls-15" d="M571,657s23.19,1.74,36.82-9.24l-15-9.08a34.27,34.27,0,0,1-16.15,1.1S574.28,650.58,571,657Z" transform="translate(60.33 234.18)"/><path class="cls-34" d="M562.16,647.85l-2.94,3.81,1,17.48A39.15,39.15,0,0,0,571,657l-3.59-8.63Z" transform="translate(60.33 234.18)"/><path class="cls-34" d="M575.42,631.18s-1-4.25-3.65-5.39l-14,20.3s4.89,1.68,6.1,2.35,3.55,2,3.55,2l8.6-5.6A16.84,16.84,0,0,0,575.42,631.18Z" transform="translate(60.33 234.18)"/><path class="cls-4" d="M658.44,702.65s-12.53,8.86-27.82,11.66c-14.2,2.63-15.51.41-15.51.41l15.26,8.74s6.53,2.2,14.69-2.82S658.44,702.65,658.44,702.65Z" transform="translate(60.33 234.18)"/><path class="cls-34" d="M563.87,648.51s-1.1-6.55-2.41-8.78a32.37,32.37,0,0,1-1.6-2.9l-3.11,5.51,1,3.81Z" transform="translate(60.33 234.18)"/><path class="cls-34" d="M559.15,651.7l-4.32-1-15.52,12.45s-.4,1.57,1.83,6.82l1.38,2.18,18.37-17.47C560.83,654.73,561.35,652.17,559.15,651.7Z" transform="translate(60.33 234.18)"/><path class="cls-34" d="M559.15,651.7s-5.74,10.16-5.52,10,8.83-5.64,8.83-5.64S562.15,651.64,559.15,651.7Z" transform="translate(60.33 234.18)"/></g></g><g class="cls-35"><path class="cls-36" d="M946.35,815.52l92.94-159s17.9-23.63,57.8-2.48,30.83,47.84,30.83,47.84l-90.91,165s-17.45,19.68-54.35,1C939.75,846.23,946.35,815.52,946.35,815.52Z" transform="translate(60.33 234.18)"/><path class="cls-4" d="M946.35,815.52s13.25-22.54,58.66.39c42.54,21.55,32,51,32,51s-19,19.15-54.36,1S946.3,827.07,946.35,815.52Z" transform="translate(60.33 234.18)"/><path class="cls-15" d="M1031.85,669.15s22.4,14.12,38.41,52.1c17,40.28,12,63.5,12,63.5l18.32-33.15s3.31-17.28-17.29-59.33c-16.78-34.33-32.88-43.93-32.88-43.93l-11.18,8.38Z" transform="translate(60.33 234.18)"/><path class="cls-4" d="M999.4,725.5s20.07,13.71,34.36,55.08,12.4,70,12.4,70l18.32-33.15s2.87-26.63-13.34-63.85c-15.11-34.5-36.59-54-36.59-54L1002.61,720Z" transform="translate(60.33 234.18)"/><path class="cls-15" d="M1005,815.91s2.47-43.69-18.67-68.94l-16.55,28.45s5.11,12.73,2.62,30.34C972.41,805.76,992.79,810,1005,815.91Z" transform="translate(60.33 234.18)"/><path class="cls-37" d="M988.08,832.89l7.28,5.4,32.83-2.47s-9-12.56-23.18-19.91L988.91,823Z" transform="translate(60.33 234.18)"/><path class="cls-37" d="M956.25,808.53s-8,2-10,7.06l38.69,25.69s3-9.25,4.21-11.56,3.63-6.74,3.63-6.74l-10.83-16C982.05,806.92,969.06,801.61,956.25,808.53Z" transform="translate(60.33 234.18)"/><path class="cls-4" d="M1087.77,649.83s17.11,23.25,22.93,51.91c5.45,26.63,1.32,29.18,1.32,29.18l15.9-29s3.91-12.35-5.82-27.54S1087.77,649.83,1087.77,649.83Z" transform="translate(60.33 234.18)"/><path class="cls-37" d="M989.25,829.65s-12.28,2.29-16.42,4.84-5.4,3.12-5.4,3.12l10.46,5.64,7.15-2Z" transform="translate(60.33 234.18)"/><path class="cls-37" d="M995.43,838.41l-1.68,8.18,24,28.75s3,.69,12.76-3.69l4.06-2.67L1001,835C1001.07,835.15,996.24,834.26,995.43,838.41Z" transform="translate(60.33 234.18)"/><path class="cls-37" d="M995.43,838.41s19.32,10.46,18.93,10.05S1003.43,832,1003.43,832,995.22,832.77,995.43,838.41Z" transform="translate(60.33 234.18)"/></g><path class="cls-3" d="M720,604h0a20,20,0,0,1,20,20h0a20,20,0,0,1-20,20h0a20,20,0,0,1-20-20h0A20,20,0,0,1,720,604Z" transform="translate(60.33 234.18)"/><rect class="cls-38" x="60.33" y="4008.18" width="1440" height="1"/><g class="cls-39"><path class="cls-15" d="M1381.09,2518.07l99.79,33.93H1337.7l-18.35-2-8.9-5.57,30.37-26.36Z" transform="translate(60.33 234.18)"/><path class="cls-2" d="M1368,2455.76v-5.34s-11.68-23.15-13.35-23.37-137.39-56.74-137.39-56.74L1269,2471l20.47,21.81Z" transform="translate(60.33 234.18)"/><g class="cls-40"><path class="cls-1" d="M1311.34,2429.61l-17,.56-7.79-13.8-16.35.78,7.67,13.46-16.24.56,7.57,13.68,16.35-.33,16.91-.44,8.23,14.24,17.47-.11,8.67,14.68h18.36l-9-14.91-8.79-14.68-17.69.44Z" transform="translate(60.33 234.18)"/><path class="cls-4" d="M1303.22,2415.7l-8-13.57-16.47.89,7.79,13.35Z" transform="translate(60.33 234.18)"/><path class="cls-4" d="M1328.8,2428.94l-8.45-14-17.13.78,8.12,13.91Z" transform="translate(60.33 234.18)"/><path class="cls-4" d="M1337.93,2414.15l-8.57-13.91-17.24.89,8.23,13.79Z" transform="translate(60.33 234.18)"/><path class="cls-4" d="M1346.71,2428.39l-17.91.55,8.57,14.36,18.24-.34,18.69-.44-9.23-14.69-9-14.46-18.13.78Z" transform="translate(60.33 234.18)"/><path class="cls-15" d="M1254.27,2417.82l15.91-.67-7.46-13.35,16-.78-7.56-13.24-15.8,1-15.46,1,7.12,12.91-15.35.78-14.91.78,6.78,12.9,15.13-.66,7.12,13.24,15.8-.56Z" transform="translate(60.33 234.18)"/><path class="cls-4" d="M1230.46,2432.17l7,13.35,15.69-.33-7.35-13.47Z" transform="translate(60.33 234.18)"/><path class="cls-4" d="M1218.11,2380.21l6.68,12.57,15.13-1-7-12.68Z" transform="translate(60.33 234.18)"/><path class="cls-4" d="M1295.21,2402.13l16.91-1-8.12-13.46-7.9-13.25-16.36,1.23-16,1.22,7.46,12.91,16.24-1Z" transform="translate(60.33 234.18)"/><path class="cls-4" d="M1338.48,2385.44l-17.46,1.11,8.34,13.69,17.8-.89Z" transform="translate(60.33 234.18)"/><path class="cls-4" d="M1374.53,2412.59l-9.13-14.24-18.24,1,8.9,14Z" transform="translate(60.33 234.18)"/><path class="cls-4" d="M1253.16,2445.19l7.45,13.79,16.24-.22-7.67-13.91Z" transform="translate(60.33 234.18)"/></g><path class="cls-15" d="M1337.7,2452.2l-62.29,13.35-1.56,4.12,13.9,19Z" transform="translate(60.33 234.18)"/><path class="cls-2" d="M1373.3,2456.43l61.19-149.21-39.38,160.55-4.23,1.45Z" transform="translate(60.33 234.18)"/><path class="cls-4" d="M1395.44,2466.33l-18.24-19.47-3.9,9.57,17.58,12.79,4.23-1.45Z" transform="translate(60.33 234.18)"/><path class="cls-2" d="M1390.88,2469.22l-12.57-10.68-19.47-14.8-49.28,19.81-2.23,11.9,12,17Z" transform="translate(60.33 234.18)"/><path class="cls-2" d="M1365.63,2477.34l36.37-11.79-20.91,52.51-30,1.9Z" transform="translate(60.33 234.18)"/><path class="cls-2" d="M1326.58,2489.92l-7.23,2.55L1316,2540l3.34,10,31.7-30,14.58-42.62Z" transform="translate(60.33 234.18)"/><path class="cls-41" d="M1423.92,2458.54l62.85,33.94-160.19-2.56Z" transform="translate(60.33 234.18)"/><path class="cls-2" d="M1319.35,2492.48v-7.79l-50.4-69.32-6.67,10.57,48.17,118.49L1316,2540Z" transform="translate(60.33 234.18)"/><path class="cls-2" d="M1269,2415.37l-6.67,10.57-22.47,20.92,17.8-35.94Z" transform="translate(60.33 234.18)"/><path class="cls-15" d="M1389.1,2497.82l-62.52-7.9,65.3,1.11Z" transform="translate(60.33 234.18)"/><path class="cls-15" d="M1333.37,2487.8l-21.81-18.13-.89,3.11,8.68,11.91v7.78Z" transform="translate(60.33 234.18)"/><path class="cls-41" d="M1305.78,2533.09l-5.12,6.34-6.68-6.34-34.82-104.15,3.12-3Z" transform="translate(60.33 234.18)"/></g><g class="cls-42"><path class="cls-15" d="M1317.28,3766.71l181.66-29.23,100.55-16.18-56.22-58.79L1278.94,3705l8.33,27.54Z" transform="translate(60.33 234.18)"/><path class="cls-3" d="M1480.62,3286l54.06,32.56-150.21,424.1-67.19,24.1-30-34.13-8.33-27.54L1377.52,3463l23.94-22.18-9.65-23,44.35-113.25Z" transform="translate(60.33 234.18)"/><g class="cls-43"><path class="cls-1" d="M1369.77,3505.93l7.49-21.83,21-3.16,7.15-21.09-20.82,3.12,7.22-20.64-20.85,2.9-7.63,20.94-7.79,21.42-21.93,3.3-8.35,22.2-22.75,3.89-8.88,23.2,23.17-4.19,22.75-3.89,8.06-22.61Z" transform="translate(60.33 234.18)"/><path class="cls-4" d="M1391.18,3502.26l21-3.38,6.9-21.28-20.78,3.34Z" transform="translate(60.33 234.18)"/><path class="cls-4" d="M1361.87,3528.06l21.86-3.75,7.45-22-21.41,3.67Z" transform="translate(60.33 234.18)"/><path class="cls-15" d="M1376.12,3546.85l21.83-4,7.19-22.24-21.41,3.67Z" transform="translate(60.33 234.18)"/><path class="cls-15" d="M1353.88,3551.12l8-23.06-22.28,4-8.42,23.13-8.55,23.83,23.1-4.63,22.68-4.34,7.72-23.24Z" transform="translate(60.33 234.18)"/><path class="cls-4" d="M1412.26,3439.51l-6.81,20.34,20.37-3-6.74,20.79,20.37-3L1446,3454l6.18-20-19.74,2.72,6.44-19.83,6.32-19.12-19.58,2.23-6.51,19.38-20.18,2.79-7.08,20.16Z" transform="translate(60.33 234.18)"/><path class="cls-15" d="M1405.59,3402.31l-20.22,2.56-7.11,19.94,20.67-2.64Z" transform="translate(60.33 234.18)"/><path class="cls-4" d="M1412.18,3498.88l-7,21.76,21-3.61,20.48-3.75,6.45-21.21,6.29-20.72-19.88,3.2-6.49,21Z" transform="translate(60.33 234.18)"/><path class="cls-4" d="M1412.2,3561.67l7.13-22.69-21.38,3.9-7.54,23Z" transform="translate(60.33 234.18)"/><path class="cls-4" d="M1360.3,3593.86l22.43-4.53,7.68-23.47-22,4.23Z" transform="translate(60.33 234.18)"/><path class="cls-4" d="M1378.26,3424.81l-20.89,2.67-7.7,20.49,21.33-2.74Z" transform="translate(60.33 234.18)"/></g><path class="cls-1" d="M1480.62,3286l-163.34,480.76,67.19-24.1,150.21-424.1Z" transform="translate(60.33 234.18)"/><path class="cls-44" d="M1480.62,3286l54.06,32.56-150.21,424.1-67.19,24.1-30-34.13-8.33-27.54L1377.52,3463l23.94-22.18-9.65-23,44.35-113.25Z" transform="translate(60.33 234.18)"/><path class="cls-3" d="M1422.39,3456.9l20.93,16.11-27.93,4.5Z" transform="translate(60.33 234.18)"/><path class="cls-44" d="M1480.16,3472.58l-36.84.43-20.93-16.11-20.93-16.11" transform="translate(60.33 234.18)"/><path class="cls-44" d="M1443.32,3473l-27.93,4.49-28.11,83.14" transform="translate(60.33 234.18)"/><path class="cls-44" d="M1515.59,3372.23l-46.47-52.34L1425.44,3332" transform="translate(60.33 234.18)"/><path class="cls-44" d="M1438.37,3328.28l-9.19-5.86" transform="translate(60.33 234.18)"/><path class="cls-45" d="M1380.28,3581.25,1344,3545.37,1278.94,3705l8.33,27.54,30,34.13Z" transform="translate(60.33 234.18)"/><path class="cls-15" d="M1435.34,3601.49l-59.26-7.88-4.75-21,11.13,5.09Z" transform="translate(60.33 234.18)"/></g><g class="cls-46"><path class="cls-15" d="M118.6,3663.79,21,3668.08a1.94,1.94,0,0,0-1.26.54l-32.56,32.53a2.16,2.16,0,0,0-.55,1.62l1.37,31a1.82,1.82,0,0,0,2.16,1.8l83.76-9.14a3.62,3.62,0,0,0,1.44-.72l18.11-27.46.18-.18L120.39,3667A2.12,2.12,0,0,0,118.6,3663.79Z" transform="translate(60.33 234.18)"/><path class="cls-47" d="M79.17,3492.28l-109.94,8.66-28.49,43.94,27.41,115.56,32.44,25.2,63.76-5,11.59-33.18,32.79-36Z" transform="translate(60.33 234.18)"/><path class="cls-48" d="M75.94,3647.45,17.87,3544.16l61.3-51.88,29.56,119.17Z" transform="translate(60.33 234.18)"/><path class="cls-47" d="M64.35,3680.63l-14.76-80.31,26.35,47.13Z" transform="translate(60.33 234.18)"/><path class="cls-49" d="M-59.26,3544.88l77.13-.72" transform="translate(60.33 234.18)"/><path class="cls-48" d="M32.24,3532l-21.19,1.72-6.22,10.53,23.08,17.64Z" transform="translate(60.33 234.18)"/><g class="cls-50"><path class="cls-51" d="M-31.29,3501.46l109.56-8.28L28.53,3534,10.1,3535.4l-6.4,9.93-63.25-.16Z" transform="translate(60.33 234.18)"/></g></g><path class="cls-15" d="M304.53,3678.42l4-8.34a1,1,0,0,1,.49-.48l60.69-27.53a1,1,0,0,1,.92,0L401,3659.8a1,1,0,0,1-.25,1.83l-76.78,20a1,1,0,0,1-.35,0l-18.25-1.81A1,1,0,0,1,304.53,3678.42Z" transform="translate(60.33 234.18)"/><g class="cls-52"><path class="cls-6" d="M308.17,3613.84l-17,46.09,19.84,13.2,57.58-27.35L386.24,3622l-42.51-13.29Z" transform="translate(60.33 234.18)"/><path class="cls-53" d="M328.19,3632.38l1.89,4,38.49,9.41,2.64-3.61,15-20.17-42.51-13.29Z" transform="translate(60.33 234.18)"/><path class="cls-3" d="M343.73,3608.71l-13.39,22.11-39.19,29.11" transform="translate(60.33 234.18)"/><path class="cls-54" d="M343.73,3608.71l-13.39,22.11-39.19,29.11" transform="translate(60.33 234.18)"/><path class="cls-55" d="M323.22,3636l1.82-10.64,10.15-2.64-5.11,13.64Z" transform="translate(60.33 234.18)"/><path class="cls-54" d="M368.57,3645.78l-38.49-9.41" transform="translate(60.33 234.18)"/><path class="cls-6" d="M355.26,3642.51l6.69-5.35-.73,6.86-5.12,3.7Z" transform="translate(60.33 234.18)"/><path class="cls-54" d="M362,3637.16l-1.65-23.29" transform="translate(60.33 234.18)"/><g class="cls-56"><path class="cls-4" d="M324.14,3647.54l4.39-9.33,9.79-.35,4.11-9-9.33.36,4.3-9.05-9.6.26-4.3,9.06-4.66,9.22-10.06.26-4.77,9.5-10.43.43-5.22,10,10.61-.52,10.34-.61,4.86-9.78Z" transform="translate(60.33 234.18)"/><path class="cls-4" d="M333.93,3647.18l9.7-.53,4-9.15-9.33.36Z" transform="translate(60.33 234.18)"/><path class="cls-1" d="M319.47,3657.22l10.07-.71,4.39-9.33-9.79.35Z" transform="translate(60.33 234.18)"/><path class="cls-4" d="M324.86,3666.2l9.88-.63,4.5-9.59-9.7.53Z" transform="translate(60.33 234.18)"/><path class="cls-4" d="M314.79,3666.91l4.68-9.69-10.16.53-4.86,9.77-5.05,10.32,10.44-.89,10.34-.61,4.68-10.14Z" transform="translate(60.33 234.18)"/><path class="cls-4" d="M346.63,3620.11l-4.2,8.78,9.33-.36-4.11,9,9.33-.36,3.93-8.88,3.83-8.6-9,.18,3.92-8.42,3.73-8.34-8.78.1-3.91,8.42-9.24.09-4.1,8.51Z" transform="translate(60.33 234.18)"/><path class="cls-4" d="M343.63,3646.65l-4.39,9.33,9.51-.45,9.43-.63,4-9.15,3.93-8.88-9.15.27-4,9.15Z" transform="translate(60.33 234.18)"/><path class="cls-4" d="M340.23,3674.73l4.4-9.78-9.89.62-4.4,9.79Z" transform="translate(60.33 234.18)"/><path class="cls-4" d="M315.49,3686.48l10.17-1,4.68-10.14-10.16,1Z" transform="translate(60.33 234.18)"/></g></g><path class="cls-15" d="M-3.58,2621.82l228.44-3-88.52-24.36,10-21.1,56.61-7.77-14.5-3.37-39-1.73Z" transform="translate(60.33 234.18)"/><path class="cls-4" d="M122.77,2514l-7,.12-57.9-21.57,65.44,37.11,10.67-8.81Z" transform="translate(60.33 234.18)"/><path class="cls-15" d="M122.77,2514l112.65-20.64L179.15,2548Z" transform="translate(60.33 234.18)"/><path class="cls-7" d="M57.91,2492.58l112.42,63.9L145,2561.12l-61.95,4.52Z" transform="translate(60.33 234.18)"/><path class="cls-7" d="M170.33,2556.48l65.09-63.09-47,68.88Z" transform="translate(60.33 234.18)"/><path class="cls-7" d="M123.35,2529.69l29.12-24,3,2.44-9.16,34.67Z" transform="translate(60.33 234.18)"/><path class="cls-7" d="M155.48,2508.12l26.34,37.34-11.49,11-24-13.69Z" transform="translate(60.33 234.18)"/><path class="cls-7" d="M188.43,2562.27,145,2561.12l25.29-4.64Z" transform="translate(60.33 234.18)"/><path class="cls-7" d="M38.54,2544.42,29.26,2546l-81.68-16.47,95.13,35.49,12.42-14Z" transform="translate(60.33 234.18)"/><path class="cls-57" d="M38.54,2544.42l145.72-51-63.47,84.08Z" transform="translate(60.33 234.18)"/><path class="cls-7" d="M-52.42,2529.57l163.47,60.88-32.83,11.6L-3.46,2621Z" transform="translate(60.33 234.18)"/><path class="cls-7" d="M111.05,2590.45l73.21-97.06-47.92,101.12Z" transform="translate(60.33 234.18)"/><path class="cls-4" d="M42.71,2565.06l33.77-37.92,4.52,2.43-4.87,47.9Z" transform="translate(60.33 234.18)"/><path class="cls-7" d="M81,2529.57l42.81,43.95-12.76,16.93-34.92-13Z" transform="translate(60.33 234.18)"/><path class="cls-7" d="M136.34,2594.51l-58.12,7.54,32.83-11.6Z" transform="translate(60.33 234.18)"/><g class="cls-58"><path class="cls-1" d="M45.73,2592.89l-17.75.58-8.24-14.26-17,.69,8,14.15-16.82.46,7.77,14.27,17.17-.35,17.52-.47,8.59,15,18.33-.23,9,15.31h19L82,2622.46l-9.16-15.19-18.56.35Z" transform="translate(60.33 234.18)"/><path class="cls-1" d="M37.15,2578.39l-8.36-14.14-17.17.92,8.12,14Z" transform="translate(60.33 234.18)"/><path class="cls-4" d="M63.83,2592.31l-8.7-14.73-18,.81,8.58,14.5Z" transform="translate(60.33 234.18)"/><path class="cls-15" d="M73.46,2576.89l-8.93-14.62-18.1,1.05,8.7,14.26Z" transform="translate(60.33 234.18)"/><path class="cls-4" d="M82.51,2591.61l-18.68.7,9,15,18.91-.47,19.49-.46L101.65,2591l-9.4-15-18.79.82Z" transform="translate(60.33 234.18)"/><path class="cls-4" d="M-13.9,2580.6l16.59-.7-7.77-13.8,16.7-.93-7.89-13.8-16.47,1.05-16.13,1,7.43,13.45-15.9.93-15.66.81,7.08,13.34,15.89-.7,7.43,13.8,16.47-.58Z" transform="translate(60.33 234.18)"/><path class="cls-4" d="M28.79,2564.25l17.64-.93-8.47-14-8.24-13.8-17,1.27L-4,2537.92l7.77,13.45,16.94-1Z" transform="translate(60.33 234.18)"/><path class="cls-4" d="M74,2547l-18.22,1.16,8.71,14.14,18.56-.92Z" transform="translate(60.33 234.18)"/><path class="cls-4" d="M111.63,2575.15,102,2560.3l-18.91,1,9.16,14.72Z" transform="translate(60.33 234.18)"/><path class="cls-4" d="M-15.06,2609.12l7.77,14.38,16.94-.23-8-14.49Z" transform="translate(60.33 234.18)"/></g></g></svg>